<svg xmlns="http://www.w3.org/2000/svg" width="144" height="22" viewBox="0 0 144 22" fill="none"><path d="M17.6265 17.4697C17.6905 17.4697 17.7225 17.5017 17.7225 17.5657C17.7225 17.6137 17.6905 17.6377 17.6265 17.6377C17.1465 17.5897 16.8105 17.5657 16.6185 17.5657H13.3305C12.9785 17.5657 12.4425 17.5897 11.7225 17.6377C11.6105 17.6377 11.5545 17.6137 11.5545 17.5657C11.5545 17.5017 11.6105 17.4697 11.7225 17.4697C12.9545 17.4057 13.5705 16.9977 13.5705 16.2457C13.5705 15.9897 13.5065 15.7097 13.3785 15.4057L11.9385 11.9977C11.8265 11.8697 11.6985 11.8057 11.5545 11.8057C11.4905 11.8057 11.3945 11.8297 11.2665 11.8777C10.1945 12.3897 9.05047 12.7977 7.83447 13.1017C6.61847 13.3897 5.38647 13.5657 4.13847 13.6297C3.96247 13.6297 3.80247 13.6777 3.65847 13.7737C3.51447 13.8537 3.41847 13.9657 3.37047 14.1097V14.0857L2.81847 15.4057C2.69047 15.7097 2.62647 15.9897 2.62647 16.2457C2.62647 16.9977 3.26647 17.4057 4.54647 17.4697C4.65847 17.4697 4.71447 17.4937 4.71447 17.5417C4.71447 17.6057 4.65047 17.6377 4.52247 17.6377C3.80247 17.5897 3.25047 17.5657 2.86647 17.5657H1.83447C1.64247 17.5657 1.30647 17.5897 0.826469 17.6377C0.762469 17.6377 0.730469 17.6137 0.730469 17.5657C0.730469 17.5017 0.762469 17.4697 0.826469 17.4697C1.22647 17.4537 1.54647 17.3017 1.78647 17.0137C2.02647 16.7257 2.31447 16.1897 2.65047 15.4057L7.76247 3.14169C7.82647 2.99769 7.85847 2.82969 7.85847 2.63769C7.85847 2.42969 7.81847 2.22969 7.73847 2.03769L7.37847 1.17369C7.33047 1.01369 7.22647 0.909688 7.06647 0.861688C7.03447 0.845688 7.02647 0.829688 7.04247 0.813688C7.07447 0.781688 7.12247 0.765687 7.18647 0.765687H9.41847C9.51447 0.765687 9.58647 0.781688 9.63447 0.813688C9.69847 0.845688 9.74647 0.909688 9.77847 1.00569L15.8265 15.4057C16.1465 16.1897 16.4265 16.7257 16.6665 17.0137C16.9065 17.3017 17.2265 17.4537 17.6265 17.4697ZM11.1705 11.7097C11.3145 11.6457 11.4185 11.5417 11.4825 11.3977C11.5465 11.2537 11.5545 11.1337 11.5065 11.0377H11.5305L8.07447 2.82969L3.82647 13.0297V13.1257C3.82647 13.2217 3.85047 13.3017 3.89847 13.3657C3.96247 13.4297 4.05047 13.4617 4.16247 13.4617C5.41047 13.3817 6.64247 13.1977 7.85847 12.9097C9.09047 12.6057 10.1945 12.2057 11.1705 11.7097Z" fill="black"></path><path d="M38.621 17.4697C38.717 17.4697 38.757 17.5017 38.741 17.5657C38.741 17.6137 38.701 17.6377 38.621 17.6377C38.045 17.5897 37.613 17.5657 37.325 17.5657H34.037C33.701 17.5657 33.173 17.5897 32.453 17.6377C32.357 17.6377 32.301 17.6137 32.285 17.5657C32.285 17.5017 32.341 17.4697 32.453 17.4697C33.157 17.4377 33.685 17.2697 34.037 16.9657C34.389 16.6457 34.525 16.0937 34.445 15.3097L33.245 2.78169C33.229 2.70169 33.197 2.66169 33.149 2.66169C33.101 2.66169 33.053 2.70969 33.005 2.80569L27.557 16.6777C27.493 16.8537 27.397 16.9417 27.269 16.9417C27.157 16.9417 27.069 16.8697 27.005 16.7257L21.677 3.04569C21.629 2.93369 21.581 2.87769 21.533 2.87769C21.485 2.87769 21.453 2.91769 21.437 2.99769L20.309 15.3097L20.285 15.6697C20.285 16.3097 20.453 16.7657 20.789 17.0377C21.141 17.2937 21.645 17.4377 22.301 17.4697C22.413 17.4697 22.469 17.4937 22.469 17.5417C22.469 17.6057 22.413 17.6377 22.301 17.6377C21.629 17.5897 21.101 17.5657 20.717 17.5657H19.589C19.301 17.5657 18.869 17.5897 18.293 17.6377C18.213 17.6377 18.165 17.6137 18.149 17.5657C18.149 17.5017 18.197 17.4697 18.293 17.4697C18.853 17.4377 19.277 17.2697 19.565 16.9657C19.869 16.6457 20.061 16.0937 20.141 15.3097L21.341 2.30169C21.069 1.77369 20.789 1.41369 20.501 1.22169C20.213 1.01369 19.837 0.893688 19.373 0.861688C19.277 0.861688 19.229 0.837687 19.229 0.789687C19.245 0.725688 19.293 0.693688 19.373 0.693688C19.949 0.741688 20.389 0.765687 20.693 0.765687H22.877C23.053 0.765687 23.165 0.837687 23.213 0.981688L28.181 13.7017C28.213 13.7817 28.245 13.8217 28.277 13.8217C28.325 13.8217 28.365 13.7817 28.397 13.7017L33.533 0.933688C33.565 0.821688 33.637 0.765687 33.749 0.765687H35.885C36.173 0.765687 36.629 0.741688 37.253 0.693688C37.333 0.693688 37.373 0.725688 37.373 0.789687C37.389 0.837687 37.349 0.861688 37.253 0.861688C36.645 0.893688 36.189 1.06969 35.885 1.38969C35.597 1.70969 35.493 2.25369 35.573 3.02169L36.773 15.3097C36.853 16.0937 37.037 16.6457 37.325 16.9657C37.629 17.2697 38.061 17.4377 38.621 17.4697Z" fill="black"></path><path d="M48.3114 17.9257C46.7274 17.9257 45.3034 17.5657 44.0394 16.8457C42.7914 16.1257 41.8154 15.1257 41.1114 13.8457C40.4074 12.5497 40.0554 11.0937 40.0554 9.47769C40.0554 7.87769 40.4554 6.38969 41.2554 5.01369C42.0554 3.62169 43.1594 2.50969 44.5674 1.67769C45.9914 0.845687 47.5914 0.429688 49.3674 0.429688C50.9834 0.429688 52.4314 0.797688 53.7114 1.53369C54.9914 2.25369 55.9914 3.25369 56.7114 4.53369C57.4314 5.81369 57.7914 7.24569 57.7914 8.82969C57.7914 10.4457 57.3834 11.9497 56.5674 13.3417C55.7514 14.7337 54.6234 15.8457 53.1834 16.6777C51.7434 17.5097 50.1194 17.9257 48.3114 17.9257ZM49.8954 17.2777C51.7034 17.2777 53.1114 16.7257 54.1194 15.6217C55.1434 14.5177 55.6554 12.9817 55.6554 11.0137C55.6554 9.41369 55.2954 7.84569 54.5754 6.30969C53.8554 4.77369 52.8874 3.51769 51.6714 2.54169C50.4714 1.56569 49.1834 1.07769 47.8074 1.07769C46.0474 1.07769 44.6634 1.62169 43.6554 2.70969C42.6634 3.78169 42.1674 5.26169 42.1674 7.14969C42.1674 8.76569 42.5194 10.3577 43.2234 11.9257C43.9274 13.4937 44.8714 14.7817 46.0554 15.7897C47.2554 16.7817 48.5354 17.2777 49.8954 17.2777Z" fill="black"></path><path d="M73.1085 17.4697C73.2045 17.4697 73.2445 17.5017 73.2285 17.5657C73.2285 17.6137 73.1885 17.6377 73.1085 17.6377C72.5325 17.5897 72.0925 17.5657 71.7885 17.5657H68.2365C67.9165 17.5657 67.4685 17.5897 66.8925 17.6377C66.7965 17.6377 66.7405 17.6137 66.7245 17.5657C66.7245 17.5017 66.7725 17.4697 66.8685 17.4697C67.3005 17.4537 67.6525 17.3657 67.9245 17.2057C68.2125 17.0457 68.3565 16.8137 68.3565 16.5097C68.3565 16.2057 68.2365 15.8697 67.9965 15.5017L64.1085 9.38169L60.1485 15.5017C59.9085 15.8697 59.7885 16.1977 59.7885 16.4857C59.7885 16.8057 59.9245 17.0457 60.1965 17.2057C60.4845 17.3657 60.8525 17.4537 61.3005 17.4697C61.4125 17.4697 61.4605 17.5017 61.4445 17.5657C61.4445 17.6137 61.3965 17.6377 61.3005 17.6377C60.6765 17.5897 60.2125 17.5657 59.9085 17.5657H58.8045C58.5485 17.5657 58.1085 17.5897 57.4845 17.6377C57.4045 17.6377 57.3565 17.6137 57.3405 17.5657C57.3405 17.5017 57.3885 17.4697 57.4845 17.4697C57.9965 17.4537 58.4045 17.3097 58.7085 17.0377C59.0285 16.7657 59.4365 16.2537 59.9325 15.5017L64.0125 9.23769L59.9565 2.82969C59.4925 2.07769 59.1005 1.56569 58.7805 1.29369C58.4765 1.02169 58.0685 0.877687 57.5565 0.861688C57.4605 0.861688 57.4125 0.837687 57.4125 0.789687C57.4285 0.725688 57.4765 0.693688 57.5565 0.693688C58.1325 0.741688 58.5645 0.765687 58.8525 0.765687H62.4285C62.7485 0.765687 63.2205 0.741688 63.8445 0.693688C63.9245 0.693688 63.9645 0.725688 63.9645 0.789687C63.9805 0.837687 63.9405 0.861688 63.8445 0.861688C63.3965 0.877687 63.0285 0.965687 62.7405 1.12569C62.4525 1.28569 62.3085 1.52569 62.3085 1.84569C62.3085 2.08569 62.4285 2.41369 62.6685 2.82969L66.2685 8.51769L69.9645 2.82969C70.2045 2.47769 70.3245 2.14969 70.3245 1.84569C70.3245 1.52569 70.1805 1.28569 69.8925 1.12569C69.6205 0.965687 69.2605 0.877687 68.8125 0.861688C68.7005 0.861688 68.6445 0.837687 68.6445 0.789687C68.6605 0.725688 68.7165 0.693688 68.8125 0.693688C69.4365 0.741688 69.9005 0.765687 70.2045 0.765687H71.2845C71.5565 0.765687 71.9805 0.741688 72.5565 0.693688C72.6365 0.693688 72.6765 0.725688 72.6765 0.789687C72.6925 0.837687 72.6525 0.861688 72.5565 0.861688C72.0765 0.877687 71.6845 1.02169 71.3805 1.29369C71.0765 1.56569 70.6765 2.07769 70.1805 2.82969L66.3645 8.68569L70.6845 15.5017C71.1485 16.2537 71.5405 16.7657 71.8605 17.0377C72.1805 17.3097 72.5965 17.4537 73.1085 17.4697Z" fill="black"></path><path d="M76.3537 3.02169C76.3537 2.23769 76.2097 1.69369 75.9217 1.38969C75.6337 1.06969 75.2017 0.893688 74.6257 0.861688C74.5297 0.861688 74.4817 0.837687 74.4817 0.789687C74.4977 0.725688 74.5457 0.693688 74.6257 0.693688C75.2017 0.741688 75.6337 0.765687 75.9217 0.765687H79.0897C79.3777 0.765687 79.8097 0.741688 80.3857 0.693688C80.4657 0.693688 80.5057 0.725688 80.5057 0.789687C80.5217 0.837687 80.4817 0.861688 80.3857 0.861688C79.8097 0.893688 79.3777 1.06969 79.0897 1.38969C78.8017 1.69369 78.6577 2.23769 78.6577 3.02169V15.3097C78.6577 16.0937 78.8017 16.6457 79.0897 16.9657C79.3777 17.2697 79.8097 17.4377 80.3857 17.4697C80.4817 17.4697 80.5217 17.5017 80.5057 17.5657C80.5057 17.6137 80.4657 17.6377 80.3857 17.6377C79.8097 17.5897 79.3777 17.5657 79.0897 17.5657H75.9217C75.6337 17.5657 75.2017 17.5897 74.6257 17.6377C74.5457 17.6377 74.4977 17.6137 74.4817 17.5657C74.4817 17.5017 74.5297 17.4697 74.6257 17.4697C75.2017 17.4377 75.6337 17.2697 75.9217 16.9657C76.2097 16.6457 76.3537 16.0937 76.3537 15.3097V3.02169Z" fill="black"></path><path d="M95.2961 9.14169C95.2801 9.22169 95.2401 9.25369 95.1761 9.23769C95.1281 9.20569 95.1121 9.15769 95.1281 9.09369C95.3681 8.29369 95.4881 7.53369 95.4881 6.81369C95.4881 5.72569 95.2481 4.71769 94.7681 3.78969C94.3681 2.92569 93.7841 2.26169 93.0161 1.79769C92.2641 1.31769 91.4241 1.07769 90.4961 1.07769C88.6241 1.07769 87.1521 1.54969 86.0801 2.49369C85.0241 3.42169 84.4961 4.90969 84.4961 6.95769C84.4961 8.84569 84.8721 10.5177 85.6241 11.9737C86.3761 13.4137 87.3361 14.5257 88.5041 15.3097C89.6721 16.0937 90.8561 16.4857 92.0561 16.4857C92.9201 16.4857 93.8401 16.3337 94.8161 16.0297C95.7921 15.7097 96.6481 15.1417 97.3841 14.3257C97.4481 14.2617 97.5041 14.2297 97.5521 14.2297C97.5841 14.2297 97.5921 14.2537 97.5761 14.3017C97.5761 14.3337 97.5521 14.3737 97.5041 14.4217C96.5281 15.6217 95.4641 16.5097 94.3121 17.0857C93.1601 17.6457 91.8481 17.9257 90.3761 17.9257C88.9361 17.9257 87.6001 17.5737 86.3681 16.8697C85.1521 16.1657 84.1761 15.1737 83.4401 13.8937C82.7201 12.5977 82.3601 11.1177 82.3601 9.45369C82.3601 7.75769 82.7681 6.22169 83.5841 4.84569C84.4001 3.46969 85.5041 2.38969 86.8961 1.60569C88.2881 0.821688 89.7921 0.429688 91.4081 0.429688C92.4481 0.429688 93.4081 0.589688 94.2881 0.909688C95.1681 1.21369 95.8641 1.61369 96.3761 2.10969C96.8881 2.58969 97.1441 3.06969 97.1441 3.54969C97.1441 3.62969 97.1281 3.73369 97.0961 3.86169L95.2961 9.14169Z" fill="black"></path><path d="M100.086 17.5657C99.7978 17.5657 99.3658 17.5897 98.7898 17.6377C98.7098 17.6377 98.6618 17.6137 98.6458 17.5657C98.6458 17.5017 98.6938 17.4697 98.7898 17.4697C99.3658 17.4377 99.7978 17.2697 100.086 16.9657C100.374 16.6457 100.518 16.0937 100.518 15.3097V3.02169C100.518 2.23769 100.374 1.69369 100.086 1.38969C99.7978 1.06969 99.3658 0.893688 98.7898 0.861688C98.6938 0.861688 98.6458 0.837687 98.6458 0.789687C98.6618 0.725688 98.7098 0.693688 98.7898 0.693688C99.3658 0.741688 99.7978 0.765687 100.086 0.765687H103.302C103.654 0.765687 104.142 0.741688 104.766 0.693688C104.862 0.693688 104.918 0.725688 104.934 0.789687C104.95 0.837687 104.902 0.861688 104.79 0.861688C104.134 0.893688 103.638 1.06969 103.302 1.38969C102.982 1.69369 102.822 2.23769 102.822 3.02169V16.4137C102.822 16.8137 102.878 17.0777 102.99 17.2057C103.118 17.3337 103.318 17.3977 103.59 17.3977C106.806 17.3977 108.918 16.8457 109.926 15.7417C110.31 15.3257 110.622 14.7337 110.862 13.9657C111.118 13.1817 111.342 12.1577 111.534 10.8937C111.55 10.7977 111.582 10.7577 111.63 10.7737C111.694 10.7737 111.718 10.8137 111.702 10.8937C111.366 13.5497 111.198 15.6057 111.198 17.0617C111.198 17.3657 111.182 17.5657 111.15 17.6617C111.118 17.7737 111.03 17.8297 110.886 17.8297C110.774 17.8297 110.294 17.7817 109.446 17.6857C108.614 17.6057 107.318 17.5657 105.558 17.5657H100.086Z" fill="black"></path><path d="M114.979 3.02169C114.979 2.23769 114.835 1.69369 114.547 1.38969C114.259 1.06969 113.827 0.893688 113.251 0.861688C113.155 0.861688 113.107 0.837687 113.107 0.789687C113.123 0.725688 113.171 0.693688 113.251 0.693688C113.827 0.741688 114.259 0.765687 114.547 0.765687H117.715C118.003 0.765687 118.435 0.741688 119.011 0.693688C119.091 0.693688 119.131 0.725688 119.131 0.789687C119.147 0.837687 119.107 0.861688 119.011 0.861688C118.435 0.893688 118.003 1.06969 117.715 1.38969C117.427 1.69369 117.283 2.23769 117.283 3.02169V15.3097C117.283 16.0937 117.427 16.6457 117.715 16.9657C118.003 17.2697 118.435 17.4377 119.011 17.4697C119.107 17.4697 119.147 17.5017 119.131 17.5657C119.131 17.6137 119.091 17.6377 119.011 17.6377C118.435 17.5897 118.003 17.5657 117.715 17.5657H114.547C114.259 17.5657 113.827 17.5897 113.251 17.6377C113.171 17.6377 113.123 17.6137 113.107 17.5657C113.107 17.5017 113.155 17.4697 113.251 17.4697C113.827 17.4377 114.259 17.2697 114.547 16.9657C114.835 16.6457 114.979 16.0937 114.979 15.3097V3.02169Z" fill="black"></path><path d="M143.497 19.4377C143.577 19.3737 143.633 19.3577 143.665 19.3897C143.713 19.4217 143.705 19.4697 143.641 19.5337C143.129 20.0937 142.481 20.5737 141.697 20.9737C140.929 21.3737 140.089 21.5737 139.177 21.5737C138.201 21.5737 137.081 21.2697 135.817 20.6617C134.553 20.0537 133.009 19.0857 131.185 17.7577C130.465 17.8697 129.817 17.9257 129.241 17.9257C127.657 17.9257 126.233 17.5657 124.969 16.8457C123.721 16.1257 122.745 15.1257 122.041 13.8457C121.337 12.5497 120.985 11.0937 120.985 9.47769C120.985 7.87769 121.385 6.38969 122.185 5.01369C122.985 3.62169 124.089 2.50969 125.497 1.67769C126.921 0.845687 128.521 0.429688 130.297 0.429688C131.913 0.429688 133.361 0.797688 134.641 1.53369C135.921 2.25369 136.921 3.25369 137.641 4.53369C138.361 5.81369 138.721 7.24569 138.721 8.82969C138.721 10.6377 138.217 12.3017 137.209 13.8217C136.201 15.3257 134.849 16.4377 133.153 17.1577C134.961 18.3257 136.385 19.1577 137.425 19.6537C138.481 20.1497 139.449 20.3977 140.329 20.3977C141.033 20.3977 141.633 20.3257 142.129 20.1817C142.641 20.0377 143.097 19.7897 143.497 19.4377ZM123.097 7.14969C123.097 8.74969 123.441 10.3337 124.129 11.9017C124.833 13.4537 125.769 14.7337 126.937 15.7417C128.121 16.7497 129.385 17.2617 130.729 17.2777C130.681 17.1337 130.753 17.0137 130.945 16.9177C131.137 16.8217 131.393 16.7737 131.713 16.7737C132.113 16.7737 132.489 16.8457 132.841 16.9897C134.041 16.6217 134.961 15.9257 135.601 14.9017C136.257 13.8777 136.585 12.5817 136.585 11.0137C136.585 9.41369 136.225 7.84569 135.505 6.30969C134.785 4.77369 133.817 3.51769 132.601 2.54169C131.401 1.56569 130.113 1.07769 128.737 1.07769C126.977 1.07769 125.593 1.62169 124.585 2.70969C123.593 3.78169 123.097 5.26169 123.097 7.14969Z" fill="black"></path></svg>