<svg xmlns="http://www.w3.org/2000/svg" width="153" height="60" viewBox="0 0 153 60" fill="none"><rect x="1.54688" y="1.85938" width="150.004" height="56.2812" rx="28.1406" fill="#007236" stroke="#0FE876" stroke-width="2"></rect><path d="M16.6646 38.0859V38.0421C18.1335 37.1213 18.1993 36.9898 18.1993 36.1567V24.6688C18.1993 23.8357 18.1335 23.7042 16.6646 22.7834V22.7396H23.1101V22.7834C21.6412 23.7042 21.5755 23.8357 21.5755 24.6688V37.6255H23.6363C25.4121 37.6255 25.5655 37.5817 28.6348 33.1751H28.7006L28.4594 38.3052H28.4156C27.7798 38.0859 27.7579 38.0859 27.3633 38.0859H16.6646ZM37.3711 38.3052C33.2714 38.3052 29.9391 35.214 29.9391 30.5662C29.9391 25.8746 33.3372 22.5203 37.6123 22.5203C41.69 22.5203 45.0224 25.6115 45.0224 30.2593C45.0224 34.9509 41.6462 38.3052 37.3711 38.3052ZM33.6222 29.9524C33.6222 34.5563 35.2226 37.8448 37.5904 37.8448C39.4977 37.8448 41.3612 35.7182 41.3612 30.8731C41.3612 26.2692 39.7608 22.9807 37.393 22.9807C35.4638 22.9807 33.6222 25.1073 33.6222 29.9524ZM58.0944 38.2613L48.185 25.8308V35.0167C48.185 35.9813 48.2508 36.1128 50.18 38.0421V38.0859H45.6857V38.0421C47.6369 36.1128 47.7027 35.9813 47.7027 35.0167V26.0719C47.7027 25.2827 47.6588 25.1731 47.1546 24.5592L45.7296 22.7834V22.7396H50.1143L57.6998 32.3639V25.8088C57.6998 24.8442 57.634 24.7127 55.6828 22.7834V22.7396H60.1771V22.7834C58.2479 24.7127 58.1821 24.8442 58.1821 25.8088V38.2613H58.0944ZM59.2961 38.0421C61.0061 36.2882 61.313 35.784 61.7076 34.5782L64.7331 25.2607C64.8427 24.888 64.9304 24.603 64.9304 24.3619C64.9304 23.8357 64.5796 23.485 63.5054 22.7834V22.7396H68.1312L72.4063 35.8717C72.7132 36.8363 72.9105 37.0775 74.0505 38.0421V38.0859H68.0873V38.0421C69.3589 37.1652 69.4247 36.9459 69.1178 35.9813L68.1531 33.0216H62.738L62.1461 34.8194C61.7953 35.9155 61.9707 36.2663 63.7904 38.0421V38.0859H59.2961V38.0421ZM62.8696 32.5612H67.9997L65.4346 24.6688L62.8696 32.5612ZM81.7434 31.9255C81.3269 31.1801 81.1734 31.0704 80.4938 31.0704H79.6168V36.1567C79.6168 36.9898 79.6826 37.1213 81.1515 38.0421V38.0859H74.706V38.0421C76.1749 37.1213 76.2406 36.9898 76.2406 36.1567V24.6688C76.2406 23.8357 76.1749 23.7042 74.706 22.7834V22.7396H81.1515C85.6896 22.7396 87.7285 24.3838 87.7285 26.6638C87.7285 28.33 86.6104 29.7112 84.44 30.3689L89.1316 38.0421V38.0859H85.3388L81.7434 31.9255ZM79.6168 30.632H80.713C82.8615 30.632 84.2646 29.2289 84.2646 26.8831C84.2646 24.5592 82.8615 23.1999 80.713 23.1999H79.6168V30.632ZM93.2688 38.0859V38.0421C94.7376 37.1213 94.8034 36.9898 94.8034 36.1567V23.1999H93.9922C92.633 23.1999 92.3699 23.3534 89.6295 27.3654H89.5637L89.7172 22.5203H89.761C90.3749 22.7396 90.3968 22.7396 90.7695 22.7396H102.214C102.608 22.7396 102.63 22.7396 103.222 22.5203H103.266L103.441 27.3654H103.375C100.635 23.3534 100.372 23.1999 99.0127 23.1999H98.1796V36.1567C98.1796 36.9898 98.2454 37.1213 99.7143 38.0421V38.0859H93.2688ZM109.004 38.0859V38.0421C110.473 37.1213 110.539 36.9898 110.539 36.1567V24.6688C110.539 23.8357 110.473 23.7042 109.004 22.7834V22.7396H114.792C120.317 22.7396 123.495 25.6554 123.495 30.2812C123.495 35.0167 120.119 38.0859 114.88 38.0859H109.004ZM113.915 37.6255H114.792C118.037 37.6255 119.878 35.3894 119.878 30.7635C119.878 25.6554 117.62 23.1999 114.704 23.1999H113.915V37.6255ZM125.827 38.3052L125.563 33.1751H125.629C128.107 36.7925 129.839 37.8667 131.417 37.8667C133.017 37.8667 134.004 36.8144 134.004 35.192C134.004 33.7451 133.193 32.7366 130.715 31.7939L128.545 31.0047C126.44 30.2154 125.388 28.8781 125.388 27.0365C125.388 24.4496 127.559 22.5203 130.562 22.5203C132.031 22.5203 133.193 23.0026 133.763 23.0026C134.048 23.0026 134.508 22.8492 135.276 22.5203H135.319L135.451 26.8831H135.385C133.171 23.77 131.79 22.9588 130.409 22.9588C128.962 22.9588 127.909 23.9015 127.909 25.3046C127.909 26.5323 128.72 27.4531 130.65 28.1546L132.798 28.9658C135.407 29.9524 136.569 31.3555 136.569 33.4382C136.569 36.2882 134.399 38.3052 131.11 38.3052C129.466 38.3052 127.931 37.8229 127.405 37.8229C127.12 37.8229 126.66 37.9763 125.87 38.3052H125.827Z" fill="white"></path></svg>