<svg xmlns="http://www.w3.org/2000/svg" width="118" height="34" viewBox="0 0 118 34" fill="none"><path d="M107.695 4.91328C107.695 4.01728 107.903 3.20928 108.319 2.48928C108.751 1.75328 109.327 1.17728 110.047 0.761281C110.783 0.329281 111.599 0.113281 112.495 0.113281C113.407 0.113281 114.231 0.321281 114.967 0.73728C115.703 1.15328 116.279 1.72928 116.695 2.46528C117.127 3.18528 117.343 3.99328 117.343 4.88928C117.343 5.78528 117.127 6.60128 116.695 7.33728C116.279 8.05728 115.703 8.62528 114.967 9.04128C114.231 9.45728 113.407 9.66528 112.495 9.66528C111.599 9.66528 110.783 9.45728 110.047 9.04128C109.327 8.62528 108.751 8.05728 108.319 7.33728C107.903 6.60128 107.695 5.79328 107.695 4.91328ZM116.623 4.88928C116.623 4.12128 116.439 3.42528 116.071 2.80128C115.719 2.16128 115.231 1.66528 114.607 1.31328C113.983 0.945282 113.279 0.761281 112.495 0.761281C111.727 0.761281 111.031 0.945282 110.407 1.31328C109.783 1.66528 109.287 2.16128 108.919 2.80128C108.567 3.42528 108.391 4.12928 108.391 4.91328C108.391 5.68128 108.567 6.37728 108.919 7.00128C109.287 7.62528 109.783 8.12128 110.407 8.48928C111.031 8.84128 111.727 9.01728 112.495 9.01728C113.279 9.01728 113.983 8.84128 114.607 8.48928C115.231 8.12128 115.719 7.62528 116.071 7.00128C116.439 6.36128 116.623 5.65728 116.623 4.88928ZM112.735 2.15328C113.311 2.15328 113.767 2.30528 114.103 2.60928C114.455 2.91328 114.631 3.30528 114.631 3.78528C114.631 4.18528 114.511 4.52128 114.271 4.79328C114.031 5.06528 113.703 5.24128 113.287 5.32128L114.655 7.62528H113.863L112.591 5.44128H111.415V7.62528H110.719V2.15328H112.735ZM111.415 4.84128H112.711C113.063 4.84128 113.351 4.75328 113.575 4.57728C113.799 4.38528 113.911 4.12128 113.911 3.78528C113.911 3.46528 113.799 3.21728 113.575 3.04128C113.351 2.84928 113.063 2.75328 112.711 2.75328H111.415V4.84128Z" fill="#FFB013"></path><path d="M13.768 22.9884C13.9193 22.9884 14.0404 23.1397 14.0404 23.291L13.5562 27.6485C13.5562 27.7696 13.4351 27.8604 13.3141 27.8604H1.84523C1.69392 27.8604 1.60314 27.7393 1.60314 27.6183V6.98036C1.60314 6.82906 1.69392 6.70802 1.84523 6.70802H6.71723C6.86853 6.70802 6.95931 6.82906 6.95931 6.98036V22.7463C6.95931 22.8673 7.08036 22.9884 7.23166 22.9884H13.768ZM24.3626 6.16332C30.3543 6.16332 35.2263 11.1564 35.2263 17.2691C35.2263 23.412 30.3543 28.4051 24.3626 28.4051C18.371 28.4051 13.5292 23.412 13.5292 17.2691C13.5292 11.1564 18.371 6.16332 24.3626 6.16332ZM24.3626 23.3515C27.6308 23.3515 30.324 20.628 30.324 17.2691C30.324 13.9404 27.6308 11.2169 24.3626 11.2169C21.0944 11.2169 18.4315 13.9404 18.4315 17.2691C18.4315 20.628 21.0944 23.3515 24.3626 23.3515ZM48.1829 7.01062L48.5763 11.3379C48.5763 11.4892 48.4552 11.6405 48.3039 11.6405H42.1912C42.0399 11.6405 41.9189 11.7616 41.9189 11.9129V14.5153C41.9189 14.6666 42.0399 14.7877 42.1912 14.7877H46.7001C46.8514 14.7877 46.9725 14.9087 46.9422 15.06L46.9119 19.3873C46.9119 19.5386 46.7909 19.6294 46.6698 19.6294H42.1912C42.0399 19.6294 41.9189 19.7505 41.9189 19.9018V27.6485C41.9189 27.7696 41.7978 27.8906 41.6768 27.8906H36.8048C36.6535 27.8906 36.5627 27.7696 36.5627 27.6485V7.04089C36.5627 6.88958 36.6535 6.76854 36.8048 6.76854H47.9105C48.0618 6.76854 48.1829 6.88958 48.1829 7.01062ZM67.2257 6.73828C67.377 6.73828 67.4678 6.82906 67.4678 6.98036V27.6183C67.4678 27.7393 67.377 27.8604 67.2257 27.8604H62.9589C62.8682 27.8604 62.7774 27.8301 62.7471 27.7393L55.5753 17.723C55.424 17.5111 55.1214 17.6019 55.1214 17.8743L55.2122 27.588C55.2122 27.7393 55.0911 27.8604 54.9398 27.8604H50.3099C50.1586 27.8604 50.0678 27.7393 50.0678 27.6183V6.98036C50.0678 6.82906 50.1586 6.73828 50.3099 6.73828H54.5464C54.6372 6.73828 54.6977 6.76854 54.7582 6.82906L61.9603 17.6625C62.1116 17.8743 62.4142 17.7835 62.4142 17.5111L62.3235 6.98036C62.3235 6.85932 62.4445 6.73828 62.5958 6.73828H67.2257ZM88.6828 27.588C88.7433 27.7696 88.6223 27.9511 88.4407 27.9511H83.2359C83.0845 27.9511 82.9635 27.8604 82.9332 27.7091L81.8136 24.3804C81.7833 24.2896 81.6925 24.1988 81.5715 24.1988H75.0957C75.0049 24.1988 74.8839 24.2896 74.8536 24.3804L73.7339 27.7696C73.7037 27.8604 73.6129 27.9511 73.4919 27.9511H68.2265C68.0449 27.9511 67.9239 27.7696 67.9844 27.588L75.7614 6.98036C75.7917 6.85932 75.9127 6.76854 76.064 6.76854H80.6334C80.7545 6.76854 80.8755 6.82906 80.9058 6.9501L88.6828 27.588ZM79.9677 19.8715C80.1492 19.8715 80.2703 19.6899 80.2098 19.5386L78.6059 14.6061C78.5152 14.364 78.152 14.364 78.0915 14.6061L76.4574 19.5386C76.3969 19.7202 76.5179 19.8715 76.6995 19.8715H79.9677ZM106.611 23.7751C106.732 23.8659 106.762 24.0475 106.671 24.1383C104.614 26.8618 101.436 28.4353 98.0772 28.4353C92.0855 28.4353 87.2438 23.4725 87.2438 17.3296C87.2438 11.2169 92.0855 6.22384 98.0772 6.22384C99.8323 6.22384 101.527 6.64749 103.07 7.46454C104.402 8.1908 105.612 9.18941 106.55 10.3696C106.641 10.4906 106.611 10.6419 106.49 10.7327L102.889 13.3654C102.798 13.4562 102.647 13.4259 102.556 13.3351C101.406 12.0037 99.802 11.2774 98.0772 11.2774C94.809 11.2774 92.146 14.0009 92.146 17.3296C92.146 20.6885 94.809 23.412 98.0772 23.412C99.8625 23.412 101.527 22.595 102.677 21.203C102.737 21.0819 102.919 21.0819 103.01 21.1425L106.611 23.7751Z" fill="#FFB013"></path></svg>