<svg xmlns="http://www.w3.org/2000/svg" width="130" height="88" viewBox="0 0 130 88" fill="none"><path d="M78.5407 65.137L78.3766 66.8048C77.8663 67.0235 77.2466 67.2149 76.5175 67.3789C75.7884 67.543 75.0502 67.6614 74.3029 67.7343C73.5556 67.8255 72.8903 67.871 72.3071 67.871C70.8307 67.871 69.4637 67.625 68.206 67.1329C66.9483 66.6225 65.8456 65.9208 64.8978 65.0276C63.9682 64.1345 63.2392 63.0865 62.7106 61.8835C62.182 60.6623 61.9177 59.3408 61.9177 57.9191C61.9177 56.4974 62.182 55.1851 62.7106 53.9821C63.2392 52.7609 63.9682 51.7038 64.8978 50.8106C65.8456 49.9175 66.9483 49.2249 68.206 48.7328C69.4637 48.2224 70.8307 47.9672 72.3071 47.9672C72.9085 47.9672 73.5829 48.0128 74.3302 48.1039C75.0776 48.1951 75.8066 48.3227 76.5175 48.4867C77.2283 48.6325 77.8298 48.8057 78.3219 49.0062L78.1852 50.5372H78.0212C77.3468 49.9175 76.4993 49.4436 75.4785 49.1155C74.4578 48.7874 73.4007 48.6234 72.3071 48.6234C70.6666 48.6234 69.2176 49.0153 67.9599 49.799C66.7205 50.5646 65.7454 51.6491 65.0345 53.0525C64.3419 54.4378 63.9956 56.06 63.9956 57.9191C63.9956 59.7965 64.3419 61.4278 65.0345 62.8131C65.7454 64.1983 66.7205 65.2828 67.9599 66.0666C69.1994 66.8321 70.6484 67.2149 72.3071 67.2149C73.5465 67.2149 74.6948 67.0144 75.7519 66.6134C76.8273 66.2124 77.7022 65.7203 78.3766 65.137H78.5407ZM84.0036 48.35H85.8628V66.9415C86.2091 66.9415 86.7559 66.8868 87.5032 66.7774L92.0417 66.0939V67.4883H84.0036V48.35ZM94.2964 67.4883L101.651 48.35H103.346L110.701 67.4883H108.705L105.315 58.5206H99.1083L96.2923 67.4883H94.2964ZM101.842 49.7717L99.2997 57.8645H105.069L102.006 49.7717H101.842ZM110.961 48.35H113.011L120.475 65.3557H120.639L126.9 48.35H128.951L120.257 67.871H119.655L110.961 48.35Z" fill="black"></path><path d="M36.5609 45.541V43.7367H55.5809V64.1851C53.2754 66.4905 50.4438 68.2948 47.0858 69.5979C43.778 70.9009 40.0692 71.5525 35.9595 71.5525C31.7495 71.5525 27.8654 70.8759 24.307 69.5227C20.7485 68.1194 17.6412 66.1898 14.9849 63.734C12.3286 61.2281 10.2487 58.3212 8.74516 55.0134C7.29172 51.7056 6.565 48.097 6.565 44.1878C6.565 40.2785 7.29172 36.67 8.74516 33.3622C10.2487 30.0544 12.3286 27.1726 14.9849 24.7167C17.6412 22.2108 20.7485 20.2813 24.307 18.9281C27.8654 17.5247 31.7495 16.8231 35.9595 16.8231C37.7638 16.8231 39.7184 16.9484 41.8234 17.199C43.9785 17.4496 46.0333 17.8004 47.9879 18.2515C49.9426 18.6524 51.5965 19.1536 52.9497 19.755L52.5738 23.965H52.1227C50.118 22.2108 47.7123 20.8827 44.9057 19.9805C42.099 19.0784 39.117 18.6273 35.9595 18.6273C31.2484 18.6273 27.1136 19.7049 23.5552 21.86C19.9968 23.965 17.2152 26.947 15.2104 30.8061C13.2558 34.6152 12.2785 39.0757 12.2785 44.1878C12.2785 49.2999 13.2558 53.7855 15.2104 57.6446C17.2152 61.4536 19.9968 64.4357 23.5552 66.5908C27.1136 68.6957 31.2484 69.7482 35.9595 69.7482C38.8664 69.7482 41.5477 69.3473 44.0035 68.5454C46.5094 67.7435 48.6645 66.5908 50.4688 65.0872V45.541H36.5609Z" fill="black"></path></svg>