<svg xmlns="http://www.w3.org/2000/svg" width="124" height="44" viewBox="0 0 124 44" fill="none"><path d="M13.445 24.3071C14.9892 24.3071 16.097 24.6562 16.7684 25.3544C17.4398 26.0527 17.7755 27.0866 17.7755 28.4562V29.9467C17.7755 31.3164 17.4398 32.3503 16.7684 33.0486C16.097 33.7468 14.9892 34.0959 13.445 34.0959H5.10635V37.9631C5.10635 38.2585 4.95864 38.4062 4.66323 38.4062H2.48792C2.17908 38.4062 2.02466 38.2585 2.02466 37.9631V24.9113C2.02466 24.5085 2.22608 24.3071 2.62892 24.3071H13.445ZM5.10635 31.4372H12.8206C13.5054 31.4372 13.9888 31.2895 14.2708 30.9941C14.5528 30.6987 14.6938 30.2489 14.6938 29.6446V28.8792C14.6938 28.275 14.5528 27.8251 14.2708 27.5297C13.9888 27.2343 13.5054 27.0866 12.8206 27.0866H5.36819C5.19363 27.0866 5.10635 27.1672 5.10635 27.3283V31.4372ZM25.522 30.3899C25.7637 30.3899 25.8846 30.5107 25.8846 30.7524V32.2026C25.8846 32.4443 25.7637 32.5652 25.522 32.5652H19.4594C19.2177 32.5652 19.0968 32.4443 19.0968 32.2026V30.7524C19.0968 30.5107 19.2177 30.3899 19.4594 30.3899H25.522ZM35.0039 24.3071C35.5141 24.3071 35.9438 24.4145 36.2929 24.6293C36.6421 24.8307 36.9845 25.2336 37.3202 25.8378L43.9871 37.943C44.0542 38.0773 44.0676 38.1914 44.0274 38.2854C44.0005 38.366 43.9065 38.4062 43.7454 38.4062H41.1874C40.9591 38.4062 40.8047 38.319 40.7241 38.1444L39.2941 35.5461H29.8275L28.4377 38.1444C28.3437 38.319 28.1893 38.4062 27.9744 38.4062H25.356C25.1814 38.4062 25.074 38.366 25.0337 38.2854C25.0069 38.1914 25.027 38.0773 25.0942 37.943L31.7006 25.8378C32.0363 25.2336 32.3653 24.8307 32.6876 24.6293C33.0098 24.4145 33.3858 24.3071 33.8155 24.3071H35.0039ZM31.0964 33.2097H38.0251L34.8226 27.3082C34.7689 27.2142 34.695 27.1672 34.601 27.1672H34.4802C34.3862 27.1672 34.3123 27.2142 34.2586 27.3082L31.0964 33.2097ZM47.4831 24.3071C47.7785 24.3071 47.9262 24.4548 47.9262 24.7502V32.7867C47.9262 33.3238 47.9665 33.7737 48.047 34.1362C48.141 34.4853 48.2887 34.7673 48.4902 34.9822C48.6916 35.1836 48.9601 35.3313 49.2958 35.4253C49.6449 35.5058 50.0814 35.5461 50.605 35.5461H58.7624C59.0578 35.5461 59.2055 35.6938 59.2055 35.9892V37.9631C59.2055 38.2585 59.0578 38.4062 58.7624 38.4062H50.4842C49.4637 38.4062 48.5976 38.3123 47.8859 38.1243C47.1742 37.9363 46.5901 37.6342 46.1336 37.2179C45.6905 36.7882 45.3615 36.2377 45.1466 35.5663C44.9452 34.8815 44.8445 34.0556 44.8445 33.0888V24.7502C44.8445 24.4548 44.9989 24.3071 45.3078 24.3071H47.4831ZM69.9568 24.3071C70.4671 24.3071 70.8968 24.4145 71.2459 24.6293C71.595 24.8307 71.9374 25.2336 72.2731 25.8378L78.94 37.943C79.0071 38.0773 79.0206 38.1914 78.9803 38.2854C78.9534 38.366 78.8594 38.4062 78.6983 38.4062H76.1403C75.912 38.4062 75.7576 38.319 75.677 38.1444L74.247 35.5461H64.7804L63.3906 38.1444C63.2966 38.319 63.1422 38.4062 62.9274 38.4062H60.3089C60.1344 38.4062 60.0269 38.366 59.9867 38.2854C59.9598 38.1914 59.9799 38.0773 60.0471 37.943L66.6536 25.8378C66.9893 25.2336 67.3182 24.8307 67.6405 24.6293C67.9628 24.4145 68.3388 24.3071 68.7684 24.3071H69.9568ZM66.0493 33.2097H72.9781L69.7755 27.3082C69.7218 27.2142 69.648 27.1672 69.554 27.1672H69.4331C69.3391 27.1672 69.2653 27.2142 69.2116 27.3082L66.0493 33.2097ZM96.3346 24.3071C96.5226 24.3071 96.6233 24.3742 96.6367 24.5085C96.6635 24.6293 96.63 24.7367 96.536 24.8307L90.3525 31.0948L96.818 37.8826C96.912 37.9766 96.9455 38.0907 96.9187 38.225C96.9052 38.3458 96.8045 38.4062 96.6166 38.4062H93.8571C93.696 38.4062 93.5684 38.3861 93.4744 38.3458C93.3804 38.3055 93.2932 38.2317 93.2126 38.1243L88.2376 32.9076L83.2425 38.1243C83.1485 38.2317 83.0545 38.3055 82.9605 38.3458C82.8799 38.3861 82.7523 38.4062 82.5778 38.4062H79.9594C79.7848 38.4062 79.6841 38.3458 79.6572 38.225C79.6438 38.0907 79.6841 37.9766 79.7781 37.8826L86.4047 30.9941L80.4226 24.8307C80.3421 24.7367 80.3085 24.6293 80.3219 24.5085C80.3353 24.3742 80.436 24.3071 80.624 24.3071H83.3835C83.5446 24.3071 83.6721 24.3339 83.7661 24.3876C83.8601 24.4279 83.9474 24.495 84.028 24.589L88.4189 29.2619L93.0716 24.589C93.1522 24.495 93.2395 24.4279 93.3335 24.3876C93.4274 24.3339 93.555 24.3071 93.7161 24.3071H96.3346ZM101.221 24.3071C101.517 24.3071 101.665 24.4548 101.665 24.7502V37.9631C101.665 38.2585 101.517 38.4062 101.221 38.4062H99.0461C98.7373 38.4062 98.5829 38.2585 98.5829 37.9631V24.7502C98.5829 24.4548 98.7373 24.3071 99.0461 24.3071H101.221ZM107.931 24.3071C108.254 24.3071 108.522 24.3205 108.737 24.3473C108.952 24.3742 109.14 24.4346 109.301 24.5286C109.462 24.6092 109.617 24.73 109.764 24.8912C109.912 25.0389 110.08 25.2403 110.268 25.4954L117.76 35.3246C117.814 35.4186 117.901 35.4656 118.022 35.4656H118.204C118.311 35.4656 118.365 35.3984 118.365 35.2641V24.7502C118.365 24.4548 118.512 24.3071 118.808 24.3071H120.923C121.218 24.3071 121.366 24.4548 121.366 24.7502V36.3115C121.366 37.1306 121.218 37.6879 120.923 37.9833C120.627 38.2653 120.171 38.4062 119.553 38.4062H117.821C117.512 38.4062 117.25 38.3928 117.035 38.366C116.834 38.3391 116.653 38.2854 116.492 38.2048C116.33 38.1243 116.169 38.0101 116.008 37.8624C115.86 37.7013 115.686 37.4864 115.484 37.2179L107.972 27.3887C107.891 27.2947 107.804 27.2477 107.71 27.2477H107.528C107.421 27.2477 107.367 27.3149 107.367 27.4492V37.9631C107.367 38.2585 107.22 38.4062 106.924 38.4062H104.809C104.501 38.4062 104.346 38.2585 104.346 37.9631V26.4018C104.346 25.5827 104.494 25.0322 104.789 24.7502C105.085 24.4548 105.541 24.3071 106.159 24.3071H107.931Z" fill="black"></path><path d="M40.1658 7.9082C43.9935 11.6297 46.3116 16.6168 46.7048 21.9143L45.9206 21.9309C45.5326 16.8392 43.2999 12.0478 39.6198 8.46976C35.6634 4.62304 30.3519 2.48806 24.8338 2.52643C19.3158 2.56479 14.0345 4.77343 10.1319 8.6748C6.50196 12.3036 4.33614 17.1257 4.019 22.2223L3.23464 22.2166C3.55407 16.9141 5.80263 11.8952 9.57816 8.12088C13.6263 4.07401 19.1045 1.78301 24.8284 1.74321C30.5523 1.70341 36.0618 3.91801 40.1658 7.9082Z" fill="#D9D9D9" stroke="#ED0B0B" stroke-width="2.30567" stroke-linejoin="round"></path></svg>