<svg xmlns="http://www.w3.org/2000/svg" width="148" height="110" viewBox="0 0 148 110" fill="none"><path d="M26.8474 8.66117L77.9216 0.3125L121.923 16.5676C121.982 16.5894 122.033 16.6297 122.067 16.6824L129.793 28.4789C136.725 39.0614 141.276 51.7132 137.562 63.806C129.402 90.3741 104.67 109.689 75.4264 109.689H65.3339C36.7715 109.689 12.5126 91.2631 3.7949 65.65C-0.66883 52.5353 4.77061 38.6792 12.9784 27.5189L26.8474 8.66117Z" fill="url(#paint0_radial_712_10179)"></path><path d="M1.34766 64.6561L1.34766 49.9953C1.36693 48.935 1.61755 47.9904 2.09949 47.1615C2.60072 46.3132 3.2658 45.6482 4.09475 45.1662C4.94297 44.665 5.89723 44.4144 6.95751 44.4144H14.1867V47.4506H7.33343C6.60087 47.4506 5.99362 47.7013 5.51167 48.2025C5.049 48.6844 4.81767 49.282 4.81767 49.9953V53.6967H13.1746V56.7329H4.81767L4.81767 64.6561H1.34766Z" fill="#382602"></path><path d="M24.2495 65.0031C22.8229 65.0031 21.5795 64.7236 20.5192 64.1645C19.459 63.5862 18.6397 62.7958 18.0613 61.7934C17.483 60.7909 17.1938 59.6632 17.1938 58.4101V49.9086H20.5192V58.3812C20.5192 59.133 20.6831 59.7981 21.0108 60.3764C21.3578 60.9355 21.8109 61.3789 22.3699 61.7066C22.9483 62.0151 23.5748 62.1693 24.2495 62.1693C24.9242 62.1693 25.5411 62.0151 26.1002 61.7066C26.6785 61.3789 27.1315 60.9355 27.4593 60.3764C27.8063 59.7981 27.9798 59.133 27.9798 58.3812V49.9086H31.3052V58.4101C31.3052 59.6632 31.0064 60.7909 30.4088 61.7934C29.8304 62.7958 29.0111 63.5862 27.9509 64.1645C26.9099 64.7236 25.6761 65.0031 24.2495 65.0031Z" fill="#382602"></path><path d="M35.295 64.6561V56.1546C35.295 54.8822 35.5842 53.7545 36.1625 52.7713C36.7409 51.7689 37.5602 50.9881 38.6205 50.4291C39.6807 49.8507 40.9242 49.5616 42.3507 49.5616C43.7773 49.5616 45.0111 49.8507 46.0521 50.4291C47.1124 50.9881 47.9317 51.7689 48.51 52.7713C49.0883 53.7545 49.3775 54.8822 49.3775 56.1546V64.6561H46.081V56.1835C46.081 55.4317 45.9075 54.7762 45.5605 54.2172C45.2135 53.6388 44.7508 53.1954 44.1725 52.887C43.6134 52.5593 42.9965 52.3954 42.3218 52.3954C41.6664 52.3954 41.0495 52.5593 40.4711 52.887C39.9121 53.1954 39.459 53.6388 39.112 54.2172C38.7843 54.7762 38.6205 55.4317 38.6205 56.1835V64.6561H35.295Z" fill="#382602"></path><path d="M60.9153 65.0031C59.4116 65.0031 58.0814 64.685 56.9248 64.0489C55.7681 63.4127 54.862 62.5066 54.2066 61.3307C53.5704 60.1355 53.2523 58.7282 53.2523 57.1088V43.5469H56.5778V52.1352H56.6067C56.9151 51.6147 57.32 51.1616 57.8212 50.7761C58.3224 50.3905 58.8815 50.0917 59.4984 49.8796C60.1153 49.6676 60.7707 49.5616 61.4647 49.5616C62.872 49.5616 64.1058 49.8796 65.1661 50.5158C66.2456 51.1327 67.0842 52.0002 67.6818 53.1183C68.2987 54.2364 68.6072 55.5473 68.6072 57.051C68.6072 58.227 68.424 59.3065 68.0577 60.2897C67.7107 61.2536 67.1999 62.0922 66.5251 62.8054C65.8697 63.5187 65.0697 64.0681 64.1251 64.4537C63.1804 64.82 62.1105 65.0031 60.9153 65.0031ZM60.9153 62.1693C61.7635 62.1693 62.5154 61.9669 63.1708 61.562C63.8262 61.1379 64.3371 60.5596 64.7034 59.827C65.0697 59.0945 65.2528 58.2462 65.2528 57.2823C65.2528 56.3377 65.0697 55.4991 64.7034 54.7666C64.3371 54.034 63.8262 53.4557 63.1708 53.0316C62.5346 52.6075 61.7924 52.3954 60.9442 52.3954C60.096 52.3954 59.3441 52.6075 58.6887 53.0316C58.0333 53.4364 57.5224 54.0051 57.1561 54.7377C56.7898 55.4702 56.6067 56.3184 56.6067 57.2823C56.6067 58.2462 56.7898 59.0945 57.1561 59.827C57.5224 60.5596 58.0333 61.1379 58.6887 61.562C59.3441 61.9669 60.0863 62.1693 60.9153 62.1693Z" fill="#382602"></path><path d="M77.7374 65.0031C76.3301 65.0031 75.1156 64.6561 74.0939 63.9621C73.0722 63.2681 72.2818 62.3428 71.7227 61.1861C71.1829 60.0102 70.913 58.7185 70.913 57.3113C70.913 55.8461 71.2215 54.5352 71.8384 53.3786C72.4745 52.2026 73.371 51.2773 74.5276 50.6026C75.7036 49.9086 77.1012 49.5616 78.7206 49.5616C80.3206 49.5616 81.6797 49.9086 82.7978 50.6026C83.9352 51.2773 84.8027 52.2026 85.4003 53.3786C86.0172 54.5352 86.3257 55.8269 86.3257 57.2534V64.6561H83.0002V61.909H82.9424C82.6532 62.4488 82.2773 62.9597 81.8147 63.4416C81.352 63.9043 80.7833 64.2802 80.1086 64.5694C79.4338 64.8585 78.6435 65.0031 77.7374 65.0031ZM78.6338 62.1693C79.5013 62.1693 80.2532 61.9572 80.8893 61.5331C81.5448 61.0897 82.0556 60.5017 82.4219 59.7692C82.7882 59.0173 82.9617 58.1788 82.9424 57.2534C82.9424 56.3281 82.7689 55.5088 82.4219 54.7955C82.0749 54.0629 81.5833 53.4846 80.9472 53.0605C80.311 52.6171 79.5495 52.3954 78.6627 52.3954C77.7374 52.3954 76.947 52.6171 76.2916 53.0605C75.6361 53.4846 75.1349 54.0629 74.7879 54.7955C74.4409 55.5281 74.2674 56.357 74.2674 57.2823C74.2674 58.1884 74.4409 59.0173 74.7879 59.7692C75.1349 60.5017 75.6265 61.0897 76.2626 61.5331C76.9181 61.9572 77.7085 62.1693 78.6338 62.1693Z" fill="#382602"></path><path d="M97.4182 64.6561C95.8952 64.6561 94.5361 64.3284 93.3409 63.6729C92.1457 63.0175 91.2011 62.1404 90.5071 61.0415C89.8131 59.9234 89.4661 58.6703 89.4661 57.2823C89.4661 55.8943 89.8131 54.6509 90.5071 53.5521C91.2011 52.434 92.1457 51.5472 93.3409 50.8917C94.5361 50.2363 95.8952 49.9086 97.4182 49.9086H99.211V52.7424H97.3604C96.4736 52.7424 95.6832 52.9448 94.9892 53.3497C94.3145 53.7352 93.7843 54.275 93.3988 54.969C93.0132 55.663 92.8204 56.4341 92.8204 57.2823C92.8204 58.1306 93.0132 58.9017 93.3988 59.5957C93.7843 60.2897 94.3145 60.8391 94.9892 61.2439C95.6832 61.6295 96.4736 61.8223 97.3604 61.8223H99.211V64.6561H97.4182Z" fill="#382602"></path><path d="M107.198 64.6561C105.887 64.6561 104.856 64.2802 104.104 63.5284C103.371 62.7765 103.005 61.7548 103.005 60.4632V46.2072H106.302V60.3186C106.302 60.762 106.436 61.1283 106.706 61.4174C106.976 61.6873 107.333 61.8223 107.776 61.8223H110.87V64.6561H107.198ZM100.46 52.7424V49.9086H110.899V52.7424H100.46Z" fill="#382602"></path><path d="M113.187 58.6703V55.663H121.37V58.6703H113.187Z" fill="#382602"></path><path d="M121.999 64.6561L128.737 46.4964C129.065 45.6674 129.537 45.0602 130.154 44.6746C130.771 44.2698 131.474 44.0674 132.265 44.0674C133.074 44.0674 133.788 44.2602 134.405 44.6457C135.041 45.0313 135.513 45.6385 135.821 46.4675L142.588 64.6561H138.8L137.238 60.174H127.233L125.614 64.6561H121.999ZM128.274 57.1088H136.197L132.959 47.6531C132.882 47.4603 132.785 47.3157 132.67 47.2193C132.573 47.1229 132.448 47.0747 132.294 47.0747C132.139 47.0747 132.014 47.1326 131.918 47.2482C131.821 47.3446 131.744 47.4796 131.686 47.6531L128.274 57.1088Z" fill="#382602"></path><path d="M142.57 48.7044V45.4258H144.008C144.214 45.4258 144.402 45.4711 144.57 45.5616C144.739 45.649 144.873 45.7739 144.973 45.9363C145.073 46.0955 145.123 46.2829 145.123 46.4983C145.123 46.7169 145.067 46.9105 144.954 47.0791C144.845 47.2446 144.697 47.3679 144.509 47.4491L144.861 48.1611C144.886 48.211 144.912 48.2485 144.94 48.2735C144.971 48.2953 145.015 48.3062 145.071 48.3062H145.306V48.7044H145.001C144.879 48.7044 144.772 48.6731 144.678 48.6107C144.587 48.5482 144.512 48.4639 144.453 48.3578L144.06 47.5569C144.028 47.56 143.994 47.5631 143.957 47.5662C143.922 47.5662 143.886 47.5662 143.849 47.5662H143.02V48.7044H142.57ZM143.02 47.1681H143.947C144.082 47.1681 144.203 47.1416 144.313 47.0885C144.425 47.0354 144.512 46.9589 144.575 46.859C144.641 46.7591 144.673 46.6389 144.673 46.4983C144.673 46.3547 144.641 46.2329 144.575 46.133C144.509 46.0331 144.422 45.9566 144.313 45.9035C144.203 45.8504 144.083 45.8239 143.952 45.8239H143.02V47.1681Z" fill="#382602"></path><circle cx="143.936" cy="47.0651" r="3.28432" fill="#382602" stroke="#542626" stroke-width="0.467874"></circle><defs><radialGradient id="paint0_radial_712_10179" cx="0" cy="0" r="1" gradientUnits="userSpaceOnUse" gradientTransform="translate(70.3801 58.9279) rotate(90) scale(50.7603 50.5106)"><stop offset="0.65" stop-color="#F8CD75"></stop><stop offset="1" stop-color="white" stop-opacity="0"></stop></radialGradient></defs></svg>